<svg xmlns="http://www.w3.org/2000/svg" xmlns:xlink="http://www.w3.org/1999/xlink" width="25" height="25" viewBox="0 0 75 75" version="1.1">
<defs>
<filter id="alpha" filterUnits="objectBoundingBox" x="0%" y="0%" width="100%" height="100%">
  <feColorMatrix type="matrix" in="SourceGraphic" values="0 0 0 0 1 0 0 0 0 1 0 0 0 0 1 0 0 0 1 0"></feColorMatrix>
</filter>
<mask id="mask0">
  <g filter="url(#alpha)">
<rect x="0" y="0" width="75" height="75" style="fill:rgb(0%,0%,0%);fill-opacity:0.34902;stroke:none;"></rect>
  </g>
</mask>
<clipPath id="clip1">
  <rect x="0" y="0" width="75" height="75"></rect>
</clipPath>
<g id="surface5" clip-path="url(#clip1)">
<path style=" stroke:none;fill-rule:nonzero;fill:rgb(0%,0%,0%);fill-opacity:1;" d="M 43.875 74.25 C 43.296875 74.25 42.730469 74.148438 42.1875 73.949219 C 40.925781 73.484375 39.90625 72.507812 39.382812 71.273438 L 33.953125 58.4375 L 27.070312 65.320312 C 26.152344 66.242188 24.925781 66.75 23.625 66.75 C 22.976562 66.75 22.347656 66.625 21.75 66.375 C 19.933594 65.621094 18.75 63.855469 18.75 61.875 L 18.75 7.875 C 18.75 5.941406 19.894531 4.1875 21.667969 3.410156 C 22.292969 3.136719 22.949219 3 23.625 3 C 24.851562 3 26.023438 3.457031 26.925781 4.289062 L 65.179688 39.539062 C 66.554688 40.808594 67.085938 42.785156 66.53125 44.570312 C 65.972656 46.359375 64.417969 47.6875 62.566406 47.949219 L 52.476562 49.640625 L 58.136719 62.511719 C 59.183594 64.890625 58.882812 67.320312 56.558594 68.484375 L 46.054688 73.734375 C 45.378906 74.074219 44.625 74.25 43.875 74.25 Z M 43.875 74.25 "></path>
</g>
</defs>
<g id="surface1">
<use xlink:href="#surface5" mask="url(#mask0)"></use>
<path style=" stroke:none;fill-rule:nonzero;fill:rgb(94.901961%,94.901961%,94.901961%);fill-opacity:1;" d="M 42.375 72.75 C 41.796875 72.75 41.230469 72.648438 40.6875 72.449219 C 39.425781 71.984375 38.40625 71.007812 37.882812 69.773438 L 32.453125 56.9375 L 25.570312 63.820312 C 24.652344 64.742188 23.425781 65.25 22.125 65.25 C 21.476562 65.25 20.847656 65.125 20.25 64.875 C 18.433594 64.121094 17.25 62.355469 17.25 60.375 L 17.25 6.375 C 17.25 4.441406 18.394531 2.6875 20.167969 1.910156 C 20.792969 1.636719 21.449219 1.5 22.125 1.5 C 23.351562 1.5 24.523438 1.957031 25.425781 2.789062 L 63.679688 38.039062 C 65.054688 39.308594 65.585938 41.285156 65.03125 43.070312 C 64.472656 44.859375 62.917969 46.1875 61.066406 46.449219 L 51.675781 47.792969 L 57.335938 60.660156 C 58.386719 63.042969 57.382812 65.820312 55.054688 66.984375 L 44.554688 72.234375 C 43.878906 72.574219 43.125 72.75 42.375 72.75 Z M 42.375 72.75 "></path>
<path style=" stroke:none;fill-rule:nonzero;fill:rgb(85.098039%,93.333333%,100%);fill-opacity:1;" d="M 42.375 69 C 42.242188 69 42.113281 68.976562 41.984375 68.929688 C 41.695312 68.820312 41.460938 68.597656 41.339844 68.3125 L 33.738281 50.351562 L 22.921875 61.171875 C 22.601562 61.492188 22.117188 61.589844 21.695312 61.414062 C 21.273438 61.242188 21 60.832031 21 60.375 L 21 6.375 C 21 5.929688 21.265625 5.523438 21.671875 5.34375 C 22.082031 5.164062 22.558594 5.246094 22.886719 5.546875 L 61.136719 40.796875 C 61.457031 41.09375 61.578125 41.542969 61.449219 41.957031 C 61.320312 42.375 60.964844 42.675781 60.535156 42.738281 L 46.25 44.78125 L 53.90625 62.171875 C 54.144531 62.722656 53.914062 63.363281 53.378906 63.632812 L 42.878906 68.882812 C 42.71875 68.960938 42.546875 69 42.375 69 Z M 42.375 69 "></path>
<path style="fill:none;stroke-width:3;stroke-linecap:round;stroke-linejoin:round;stroke:rgb(25.098039%,22.352941%,43.137255%);stroke-opacity:1;stroke-miterlimit:10;" d="M 29.5 8.5 L 29.5 80.5 L 45.5 64.5 L 56.5 90.5 L 70.5 83.5 L 59.5 58.5 L 80.5 55.5 Z M 29.5 8.5 " transform="matrix(0.75,0,0,0.75,0,0)"></path>
</g>
</svg>